<svg width="41" height="32" viewBox="0 0 41 32" fill="none" xmlns="http://www.w3.org/2000/svg">
<path d="M12.8465 25.942C13.1367 25.6518 13.1367 25.2054 12.8465 24.9152L4.07422 16.1429L12.8465 7.37054C13.1367 7.08036 13.1367 6.63393 12.8465 6.34375L11.7305 5.22768C11.4403 4.9375 10.9939 4.9375 10.7037 5.22768L0.301897 15.6295C0.0117188 15.9196 0.0117188 16.3661 0.301897 16.6562L10.7037 27.058C10.9939 27.3482 11.4403 27.3482 11.7305 27.058L12.8465 25.942ZM26.0385 2.125C26.1501 1.74554 25.9269 1.34375 25.5474 1.23214L24.1635 0.852677C23.8064 0.741071 23.4046 0.964285 23.293 1.34375L14.9671 30.1607C14.8555 30.5402 15.0787 30.942 15.4581 31.0536L16.8421 31.433C17.1992 31.5446 17.601 31.3214 17.7126 30.942L26.0385 2.125ZM40.7037 16.6562C40.9939 16.3661 40.9939 15.9196 40.7037 15.6295L30.3019 5.22768C30.0117 4.9375 29.5653 4.9375 29.2751 5.22768L28.159 6.34375C27.8689 6.63393 27.8689 7.08036 28.159 7.37054L36.9314 16.1429L28.159 24.9152C27.8689 25.2054 27.8689 25.6518 28.159 25.942L29.2751 27.058C29.5653 27.3482 30.0117 27.3482 30.3019 27.058L40.7037 16.6562Z" fill="#482BE7"/>
</svg>
